PathFileType	4	(X/Y/Z)	C:/Users/opensim2020/Desktop/walking_exp_matlab/subject02_walking12_straight_04.trc	
DataRate	CameraRate	NumFrames	NumMarkers	Units	OrigDataRate	OrigDataStartFrame	OrigNumFrames	
100.00	100.00	4	42	mm	100.00	2024	125	
Frame#	Time	LFHD			RFHD			LBHD			RBHD			C7			T10			CLAV			STRN			RBAK			LSHO			LUPA			LELB			LFRM			LWRA			LWRB			LFIN			RSHO			RUPA			RELB			RFRM			RWRA			RWRB			RFIN			LASI			RASI			LPSI			RPSI			LTHI			LKNE			LTIB			LANK			LHEE			LTOE			RTHI			RKNE			RTIB			RANK			RHEE			RTOE			*39			*40			*41			
		X1	Y1	Z1	X2	Y2	Z2	X3	Y3	Z3	X4	Y4	Z4	X5	Y5	Z5	X6	Y6	Z6	X7	Y7	Z7	X8	Y8	Z8	X9	Y9	Z9	X10	Y10	Z10	X11	Y11	Z11	X12	Y12	Z12	X13	Y13	Z13	X14	Y14	Z14	X15	Y15	Z15	X16	Y16	Z16	X17	Y17	Z17	X18	Y18	Z18	X19	Y19	Z19	X20	Y20	Z20	X21	Y21	Z21	X22	Y22	Z22	X23	Y23	Z23	X24	Y24	Z24	X25	Y25	Z25	X26	Y26	Z26	X27	Y27	Z27	X28	Y28	Z28	X29	Y29	Z29	X30	Y30	Z30	X31	Y31	Z31	X32	Y32	Z32	X33	Y33	Z33	X34	Y34	Z34	X35	Y35	Z35	X36	Y36	Z36	X37	Y37	Z37	X38	Y38	Z38	X39	Y39	Z39	X40	Y40	Z40	X41	Y41	Z41	X42	Y42	Z42	

32	0.310	1440.83264	350.61176	1728.83081	1299.26501	361.78650	1705.68994	1462.63953	470.76196	1640.42236	1323.55090	493.46155	1615.37830	1391.61536	523.22510	1497.72449	1391.53943	562.15314	1220.85095	1405.90540	380.99170	1438.44714	1408.29883	317.74121	1270.43665	1338.45569	570.67041	1316.68591	1568.92273	457.30505	1488.53101	1686.30200	435.60855	1313.51709	1742.10107	388.25156	1189.74329	1765.27148	271.24899	1125.91077	1740.65381	136.47289	1114.81030	1773.13501	159.97096	1074.74121	1784.53052	95.71716	1069.31458	1208.72937	448.13480	1456.96887	1135.38037	509.10480	1273.44739	1123.41858	524.83484	1130.51294	1095.89771	536.93488	1014.59656	1103.37427	531.93433	877.16254	1078.42615	580.43182	892.85217	1070.74658	571.32056	819.99847	1541.14307	342.78418	957.56433	1297.27893	302.12686	963.62335	1439.43823	537.15112	1007.68512	1321.29175	524.36395	1013.50696	1598.89795	473.44992	653.38892	1583.47168	535.89368	473.67163	1567.08386	693.68048	369.58441	1534.98547	838.09711	204.69864	1474.44141	860.04401	215.82716	1549.29993	801.33698	50.74025	1228.24866	298.07147	664.87048	1285.72314	245.36037	467.59888	1281.22180	263.29498	279.58929	1321.14319	273.60556	88.91528	1375.10156	313.45947	38.48217	1322.41479	122.19846	39.98957	1358.56738	466.62518	1779.50293	-3357.12939	2845.93750	1034.31213			 
33	0.320	1441.05664	337.31235	1731.39172	1299.51294	348.27881	1708.13489	1462.73792	457.21106	1642.91309	1323.70105	479.92050	1617.69116	1391.77515	509.41849	1500.08325	1390.95886	547.87830	1222.98474	1406.13379	367.38965	1440.83545	1408.41052	303.92596	1272.74866	1338.66211	556.72186	1318.91541	1569.60608	444.37006	1490.39587	1685.37891	425.33618	1313.62854	1739.93298	379.91284	1188.67725	1761.93188	263.22195	1123.05408	1735.83862	128.70796	1110.25952	1768.92737	152.14893	1070.71729	1779.16003	87.86362	1064.33521	1208.91455	434.41956	1459.33972	1135.47729	493.72015	1275.37244	1123.20251	508.10855	1131.99951	1096.88159	518.08472	1015.69769	1104.41089	510.97113	878.36157	1079.19971	559.52905	893.08997	1072.37488	549.59064	820.42767	1539.14514	328.19217	958.35913	1295.48743	288.33829	965.67780	1439.60779	523.23358	1009.24286	1321.53320	510.71082	1015.06519	1599.21033	450.87860	651.60699	1585.83862	508.32657	471.99982	1569.81409	667.25403	371.05368	1533.06519	815.47809	211.55359	1471.58875	836.77399	220.46521	1553.95837	779.95905	57.35722	1227.94067	284.24927	667.19592	1285.21033	239.32365	467.25201	1281.67810	260.63779	279.65359	1321.51819	273.38028	89.25129	1375.31091	313.42471	38.35814	1322.49023	121.98120	39.78878	1358.78101	453.22531	1781.99890	-3357.13550	2845.98096	1034.40308			 
34	0.330	1440.94995	323.58682	1733.85779	1299.42444	334.62830	1710.27441	1462.95825	443.62173	1645.47290	1323.90710	466.28082	1620.10242	1391.80542	495.50549	1502.78528	1390.40894	533.81873	1225.33997	1406.57043	353.93436	1443.28149	1408.73950	290.24826	1275.11450	1338.22180	542.66156	1321.18140	1570.26233	431.42160	1492.20886	1683.96973	415.02716	1313.50452	1737.37610	371.61975	1187.42114	1758.86218	255.93062	1120.23438	1731.16577	121.64922	1105.02234	1765.11084	145.18733	1066.35803	1773.91150	80.58290	1058.51575	1209.06885	420.43417	1461.87109	1135.51965	478.00372	1277.32422	1123.22314	491.06009	1133.61340	1097.11499	499.35623	1017.03949	1105.56763	489.33588	879.81067	1080.08594	538.04486	893.48834	1073.38562	526.45563	821.16541	1537.91138	314.09735	959.31818	1294.26428	274.89011	967.52490	1439.62000	509.71173	1011.26245	1321.78491	497.55405	1016.91718	1599.98560	428.98245	651.92401	1587.92749	481.13348	471.42209	1571.31458	640.63495	373.80188	1530.75842	790.98547	218.04045	1468.84229	812.52332	223.80190	1558.57007	754.89160	64.70277	1227.81323	271.27686	669.30878	1285.11426	234.47804	467.12085	1281.57092	257.92407	279.57895	1321.65234	273.07495	89.49481	1375.28247	313.54782	38.55163	1322.65027	121.86200	39.65411	1358.82239	439.69113	1784.44519	-3357.22021	2845.75537	1034.42322			 
35	0.340	1441.28711	310.11954	1736.47131	1299.86816	321.07376	1712.75500	1463.23438	430.03888	1648.06262	1324.20129	452.72314	1622.46631	1391.93945	481.65860	1505.60876	1390.04065	519.96155	1227.85474	1407.15674	340.50540	1445.73718	1409.24463	276.59253	1277.57373	1337.97192	529.09052	1323.94861	1570.94202	418.31421	1494.23694	1683.06006	405.22159	1313.91882	1734.53784	363.37473	1186.19617	1755.63635	248.92952	1117.20984	1726.66296	115.02648	1099.17090	1761.60498	139.04395	1061.62756	1768.77063	74.09803	1051.92468	1209.44739	406.06467	1464.65247	1135.93811	462.53629	1279.44958	1123.14587	473.82306	1135.34912	1097.50208	479.74353	1018.52441	1106.58032	466.43658	881.63715	1081.04114	515.79053	894.05499	1074.56287	502.52032	822.09167	1537.37598	300.53372	960.76483	1293.40845	261.74203	969.16736	1439.45410	496.52448	1013.69073	1321.97363	484.71423	1019.18054	1600.50488	407.99213	653.42853	1589.09412	453.94730	471.81650	1571.17859	613.72015	377.15051	1528.69873	764.59418	222.77562	1466.92676	786.48181	226.24677	1562.49878	726.84991	70.69564	1228.08789	260.76056	670.76605	1284.74084	229.24026	467.04773	1280.80835	255.18045	279.52615	1321.66284	272.80411	89.64971	1375.32959	313.54523	38.60095	1322.62952	121.80061	39.55660	1358.87988	426.06833	1786.90393	-3360.41211	2845.21606	1034.26038			 
